<svg version="1.1" xmlns="http://www.w3.org/2000/svg" xmlns:xlink="http://www.w3.org/1999/xlink" width="569.91491" height="93.58065" viewBox="0,0,569.91491,93.58065"><g transform="translate(-82.18509,-236.68962)"><g data-paper-data="{&quot;isPaintingLayer&quot;:true}" fill="#000000" fill-rule="nonzero" stroke="none" stroke-width="0.5" stroke-linecap="butt" stroke-linejoin="miter" stroke-miterlimit="10" stroke-dasharray="" stroke-dashoffset="0" style="mix-blend-mode: normal"><path d="M269.83167,253.71804c-1.11803,2.23607 -3.3541,1.11803 -3.3541,1.11803l-1.67254,-0.86436c-2.22146,-0.75615 -4.3553,-1.82425 -6.30781,-3.12592c-8.16753,-2.65177 -18.12518,-2.65777 -26.69135,-1.58332c-5.07127,0.63609 -9.38965,2.43203 -14.61073,1.80525c-2.62031,-0.31456 -5.18281,-1.14741 -7.61093,-2.18143c-1.10576,-0.47089 -1.89652,-1.5238 -3,-2c-2.33076,-1.00582 -5.10976,-0.88135 -7.30294,-2.15966c-0.78781,-0.45918 -1.11173,-1.5241 -1.91742,-1.95113c-1.85332,-0.98228 -4.86265,-0.67994 -6.76825,-0.6755c-4.24997,0.0099 -7.60971,0.21725 -11.75594,1.23727c-7.7132,4.68993 -15.83896,9.07065 -22.56027,15.17563c-4.74896,4.31349 -7.47963,10.38984 -12.07127,14.98907c-9.00218,9.01707 -19.58734,18.33238 -31.82195,22.46974c0,0 -0.28558,0.09519 -0.69157,0.12042c-0.51969,0.4627 -1.27183,0.82581 -2.2629,0.98368c-3.24859,0.51747 -6.40713,1.56036 -9.67272,1.95657c-3.97609,0.97062 -8.30824,2.58835 -12.36858,3.04886c-6.39217,0.72498 -7.24403,-4.2422 -0.61092,-4.9625c3.9475,-0.42867 8.22817,-2.07216 12.08816,-3.00624c3.33239,-0.39966 6.55286,-1.4808 9.87054,-1.98833c0.30334,-0.0464 0.58914,-0.06975 0.85723,-0.07261c0.51238,-0.59085 1.20962,-0.82326 1.20962,-0.82326c8.69963,-2.85002 15.78355,-8.71489 22.38006,-14.78676c2.42674,-2.23374 5.15427,-4.13801 7.48458,-6.47218c4.66798,-4.6757 7.40582,-10.69809 12.23435,-15.14521c7.08834,-6.52842 15.78462,-11.22024 24.02246,-16.10638c6.64468,-1.68072 16.35266,-3.42744 22.90087,-0.29327c0.8784,0.42042 1.25538,1.53499 2.08258,2.04887c1.96652,1.22168 4.56705,0.93327 6.69706,1.84034c3.11025,1.32451 5.83454,3.3516 9.38907,3.81857c4.4967,0.59075 8.84308,-1.28917 13.25321,-1.83874c9.57069,-1.19265 20.36553,-1.02972 29.44471,2.06067c1.76856,1.17904 3.67053,2.2177 5.69219,2.87408l2.32746,1.13564c0,0 2.23607,1.11803 1.11803,3.3541z"/><path d="M652.10001,309.60001c0,2.5 -2.5,2.5 -2.5,2.5h-1c-2.16096,-0.02051 -4.26227,-0.71875 -6.40046,-1.03228c-3.6994,-0.54246 -7.84727,0.03228 -11.59954,0.03228c-9.56445,0 -19.13032,0.04775 -28.69454,-0.01873c-3.87834,0.98983 -8.03369,2.50474 -12,3c-5.88015,0.73423 -12.37059,0.01873 -18.30546,0.01873c-3.96091,0 -8.38696,0.53487 -12.30407,-0.01856c-4.36609,-0.61687 -8.64114,-2.36606 -13.00138,-3.00017c-4.11963,-0.59911 -7.97612,-0.19775 -12.18483,-1.02982c0,0 -1.19343,-0.23869 -1.74837,-1.21567c-1.77949,-0.479 -3.73276,-0.26641 -5.49021,-0.84305c-1.14195,-0.37469 -1.86875,-1.59414 -3,-2c-0.71475,-0.25643 -1.51627,0.09601 -2.27554,0.10727c-4.93703,0.07322 -8.62129,1.60157 -13.30103,2.9003c-1.16253,0.32263 -2.45437,0.25802 -3.52794,0.80848c-0.97201,0.49839 -1.51286,1.59406 -2.40019,2.23111c-1.75883,1.26274 -4.82906,1.44596 -5.46114,3.51682c-0.26945,0.88279 0.39453,1.8989 0.08303,2.76775c-0.51493,1.43627 -1.63958,2.57367 -2.45937,3.86051c-3.71609,3.67332 -9.34354,7.18456 -14.6279,7.8963c-3.07407,0.41404 -6.20363,0.01873 -9.30546,0.01873c-5.06706,0 -9.01493,0.67636 -13.46178,-2.47189c-1.13952,-0.80675 -2.27123,-1.79987 -2.84792,-3.0714c-0.78496,-1.73072 0.21452,-4.04625 -0.81693,-5.64238c-0.45247,-0.70019 -1.28449,-1.07954 -1.80673,-1.72936c-2.14216,-2.66545 -3.58595,-6.6105 -6.52842,-8.55687c-3.33013,-2.20279 -7.15018,-2.06241 -10.6366,-3.78232c-2.20152,-1.08604 -4.38423,-2.31875 -6.76899,-2.90108c-1.46248,-0.72748 -2.97224,-1.3668 -4.38745,-2.18244c-0.87743,-0.50569 -1.49336,-1.50035 -2.46964,-1.76955c-1.1815,-0.32578 -2.46201,0.2432 -3.676,0.07499c-1.04412,-0.14467 -1.9565,-0.85093 -3,-1c-1.28859,-0.18409 -2.61396,0.17961 -3.905,0.01355c-3.83248,-0.49296 -7.56889,-2.22365 -11.33875,-3.06129c-2.92704,-0.65037 -6.06019,-0.44077 -8.87261,-1.48041c-1.51981,-0.56181 -2.58888,-2.09814 -4.15052,-2.53029c-1.57646,-0.43624 -3.31175,0.38516 -4.90705,0.02384c-1.59112,-0.36038 -2.90476,-1.49211 -4.40504,-2.13296c-7.3678,-3.14722 -14.93304,-5.46415 -22.13861,-9.06409c0,0 -2.23607,-1.11803 -1.11803,-3.3541c1.11803,-2.23607 3.3541,-1.11803 3.3541,-1.11803c5.89158,2.9482 11.9389,5.40164 18.14452,7.61005c2.50559,0.89167 4.71314,2.62731 7.31183,3.19289c1.65884,0.36104 3.45699,-0.4297 5.09295,0.02384c1.65082,0.45766 2.82343,2.00514 4.42441,2.61467c2.6368,1.00391 5.60403,0.72367 8.35827,1.3358c6.08202,1.35172 11.86819,3.09837 17.95044,3.9911c1.42627,0.20934 2.94081,-0.33101 4.324,0.07499c2.62595,0.77078 4.69816,2.818 7.14291,4.04802c2.54079,0.64895 4.89248,1.91231 7.23101,3.09892c3.77208,1.91402 7.65322,1.73056 11.3634,4.21768c3.37452,2.26211 5.02709,6.37414 7.47158,9.44313c0.65562,0.82312 1.67114,1.357 2.19327,2.27064c0.68427,1.19735 1.08879,2.55806 1.34109,3.91387c0.14934,0.80251 -0.38882,1.66077 -0.15802,2.44375c0.87887,2.98157 6.89556,2.47287 8.6903,2.45671c8.69808,-0.07834 16.4781,0.62619 23.06664,-6.08497c2.44165,-3.39075 0.65019,-5.42294 4.39482,-8.38554c1.32506,-1.04833 2.96559,-1.63526 4.34262,-2.61433c1.08785,-0.77346 1.83529,-2.01851 3.02488,-2.62393c2.65952,-1.35353 7.47545,-2.34698 10.47206,-3.19152c3.46179,-0.97565 8.81794,-2.1223 12.42343,-0.99243c1.14686,0.35939 1.86183,1.61399 3,2c0.84507,0.28661 1.79602,-0.2231 2.676,-0.07499c1.17115,0.19712 2.26008,0.73067 3.39011,1.09601l0.20943,-0.12829c0,0 1.64901,0 2.26851,1.33926c3.41184,0.43661 6.59178,0.19427 10.04136,0.67947c4.36541,0.61402 8.63931,2.36169 12.99862,2.99983c3.70015,0.54165 7.94974,-0.01856 11.69593,-0.01856c5.72527,0 12.02416,0.72841 17.69454,0.01873c3.9509,-0.49448 8.1324,-2.05046 12,-3c9.76811,-0.05535 19.53719,-0.01873 29.30546,-0.01873c4.02733,0 8.41867,-0.52313 12.40046,0.03228c1.87602,0.26168 3.70551,0.99124 5.59954,0.96772h1c0,0 2.5,0 2.5,2.5z"/></g></g></svg>