<svg version="1.1" xmlns="http://www.w3.org/2000/svg" xmlns:xlink="http://www.w3.org/1999/xlink" width="783.17719" height="492.09609" viewBox="0,0,783.17719,492.09609"><defs><radialGradient cx="635.96097" cy="1.96698" r="107.35736" gradientUnits="userSpaceOnUse" id="color-1"><stop offset="0" stop-color="#deff4d"/><stop offset="1" stop-color="#deff4d" stop-opacity="0"/></radialGradient></defs><g transform="translate(39.85886,105.39038)"><g data-paper-data="{&quot;isPaintingLayer&quot;:true}" fill-rule="nonzero" stroke="#000000" stroke-linecap="butt" stroke-linejoin="miter" stroke-miterlimit="10" stroke-dasharray="" stroke-dashoffset="0" style="mix-blend-mode: normal"><path d="M-38.85886,385.70571v-411.41141h717.71772v411.41141z" fill="#4d8aff" stroke-width="2"/><path d="M580.66067,2.22223c0,-31.51174 25.54531,-57.05706 57.05706,-57.05706c31.51174,0 57.05706,25.54531 57.05706,57.05706c0,31.51174 -25.54531,57.05706 -57.05706,57.05706c-31.51174,0 -57.05706,-25.54531 -57.05706,-57.05706z" fill="#deff4d" stroke-width="2"/><path d="M528.60361,1.96697c0,-59.29183 48.06553,-107.35735 107.35735,-107.35735c59.29183,0 107.35736,48.06553 107.35736,107.35735c0,59.29183 -48.06554,107.35736 -107.35736,107.35736c-59.29183,0 -107.35735,-48.06554 -107.35735,-107.35736z" fill="url(#color-1)" stroke-width="0"/></g></g></svg>