<svg version="1.1" xmlns="http://www.w3.org/2000/svg" xmlns:xlink="http://www.w3.org/1999/xlink" width="817.71509" height="104.19294" viewBox="0,0,817.71509,104.19294"><g transform="translate(42.01509,-253.12994)"><g data-paper-data="{&quot;isPaintingLayer&quot;:true}" fill="#000000" fill-rule="nonzero" stroke="none" stroke-width="0.5" stroke-linecap="butt" stroke-linejoin="miter" stroke-miterlimit="10" stroke-dasharray="" stroke-dashoffset="0" style="mix-blend-mode: normal"><path d="M775.70001,336.60001c0,1.04097 -0.43345,1.64849 -0.93938,2.00305c0.02082,0.67347 -0.01014,1.33591 -0.25092,1.95366c-0.42893,1.10045 -1.65135,1.69587 -2.37634,2.62826c-1.69849,2.18437 -3.22903,4.56942 -5.34838,6.34838c-1.99406,1.6738 -3.98826,2.39514 -6,4c-2.18453,1.7427 -3.72549,5.02912 -7.70301,3.30271c-1.52401,-0.66148 -1.60062,-2.91786 -2.25367,-4.4455c-0.82879,-1.93871 -0.63963,-4.16993 -1.06575,-6.23486c-0.50906,-2.46688 -2.27128,-4.52714 -2.97949,-6.94439c-1.22653,-4.18632 -1.08219,-4.73485 -1.08228,-8.18846l-2.22727,-0.19105c-6.70089,-3.38224 -13.01548,-6.9885 -19.26026,-11.1517c-4.08699,-2.72466 -7.34665,-4.86763 -12.29914,-5.81818c-1.62992,-0.31284 -3.32963,-0.12162 -4.96043,-0.4299c-3.12898,-0.59148 -5.81859,-2.71226 -8.92807,-3.39893c-1.52177,-0.33605 -3.12068,0.16772 -4.675,0.05441c-6.05791,-0.44164 -11.8256,-3.04084 -17.67866,-4.20287c-1.64197,-0.32598 -3.37136,-0.0044 -5.01009,-0.34631c-1.67013,-0.34846 -3.17505,-1.27422 -4.82564,-1.70586c-6.29871,-1.64715 -13.14952,-1.02625 -19.54169,-1.75123c-4.06034,-0.46051 -8.39249,-2.07824 -12.36858,-3.04886c-3.26559,-0.39621 -6.42413,-1.4391 -9.67272,-1.95657c-4.50719,-0.71795 -10.10873,0.02416 -14.65325,0.02416c-6.146,0 -12.73943,-0.68193 -18.84486,0.00666c-1.65547,0.18671 -3.24475,0.79885 -4.9008,0.98037c-4.67644,0.51258 -9.48559,-0.25721 -14.1792,0.19624c-3.31559,0.32031 -6.51269,1.48969 -9.8288,1.80457c-1.50088,0.14251 -3.05926,-0.46072 -4.52188,-0.0951c-1.08945,0.27233 -1.72994,1.49376 -2.76978,1.91781c-0.52921,0.21581 -8.40894,1.67096 -8.60463,1.73535c-1.50826,0.49628 -2.87006,1.35917 -4.30509,2.03875c-3.14422,1.27657 -6.20431,2.76934 -9.4043,3.89887c-2.85581,1.00804 -5.93661,1.30056 -8.77331,2.3612c-1.49055,0.55731 -2.73928,1.74436 -4.29298,2.08841c-1.76338,0.39048 -3.61434,-0.03298 -5.41793,0.06198c-4.36517,0.22981 -8.60257,1.46727 -12.9101,1.99273c-5.22641,0.63756 -10.9865,0.03789 -16.24634,0.01217c-3.85742,-0.01887 -7.49925,0.36765 -10.23223,3.26777c0,0 -1.76777,1.76777 -3.53553,0c-0.33847,-0.33847 -0.54733,-0.67694 -0.6638,-1.003l-2.17434,0.70296c-5.7103,0.05421 -11.41511,0.03201 -17.12492,-0.07499c-1.42077,-0.95842 -3.11991,-1.59772 -4.26231,-2.87525c-0.71731,-0.80215 -0.35333,-2.22829 -1.04134,-3.05571c-0.98227,-1.18129 -2.65252,-1.60845 -3.73966,-2.69401c-1.26277,-1.26094 -2.1585,-2.8424 -3.23223,-4.26777c-2.68981,-3.5707 -5.68394,-7.41247 -8.10584,-11.15262c-0.77725,-1.20031 -1.05185,-2.69379 -1.89512,-3.84867c-0.79021,-1.0822 -6.03879,-5.11128 -6.61496,-5.59115c-4.63089,-3.85697 -8.3247,-7.00788 -13.86675,-9.56263c-1.35349,-0.62392 -2.58998,-1.58608 -4.04657,-1.90159c-1.45659,-0.31551 -2.98041,0.04775 -4.47075,0.05666c-2.99995,0.01795 -6.00033,0.04423 -9,0c-1.09231,-0.0161 -2.21948,-0.38681 -3.27554,-0.10727c-1.04515,0.27665 -3.0188,2.41745 -3.77148,3.16799c-3.17549,4.94888 -8.80198,8.73036 -13.38866,12.38938c-2.29216,1.82857 -4.70428,3.55341 -6.69321,5.7079c-2.09504,2.26942 -3.98606,4.86139 -6.60544,6.49795c-2.42217,1.51334 -5.29085,2.17314 -7.82529,3.48986c-4.27205,2.21948 -8.04545,5.34907 -12.30302,7.58049c-4.0165,2.10507 -8.91279,3.94193 -13.20331,5.37034c-3.13209,1.04274 -6.49067,1.3456 -9.58078,2.50687c-4.67876,1.75829 -5.53492,4.23739 -11.30998,2.2062c-1.49108,-0.52444 -2.23533,-2.23533 -3.35299,-3.35299c-0.51102,-10.62497 -0.1903,-21.32017 -0.1903,-31.95671c0,-3.06195 1.05563,-7.69668 -1.28605,-10.25071c-0.53441,-0.58287 -1.46073,-0.61432 -2.15223,-0.99793c-3.87383,-2.14898 -7.27766,-4.05 -11.47563,-5.57451c-0.81588,-0.29629 -9.02628,-2.72654 -9.66037,-2.98974c-0.60496,-0.25111 -8.18327,-4.37493 -8.94078,-4.73132c-4.06604,-1.91296 -8.36259,-3.49753 -12.59936,-4.9857c-2.01195,1.2084 -0.88356,5.4224 -0.88558,7.52991c-0.00704,7.32416 -1.49037,14.9985 -5.37337,21.31433c-4.16385,6.77265 -10.21587,14.08883 -16.68082,18.72519c-2.4569,1.76198 -5.45484,2.76032 -7.71692,4.76629c-2.04299,1.81169 -2.96733,4.58936 -4.59783,6.77968c-0.93886,1.26122 -2.13745,2.33119 -2.96726,3.66669c-1.53647,2.47283 -1.45051,5.81704 -3.24717,8.10782c-1.33144,1.69761 -3.39274,2.66604 -5.08911,3.99907c-1.53936,0.00421 -3.1728,0.54254 -4.61809,0.01264c-3.22109,-1.18098 -9.46566,-7.27442 -11.36561,-10.10645c-0.62254,-0.92794 -0.39347,-2.24399 -0.94319,-3.21683c-0.87456,-1.54769 -2.56781,-2.58339 -3.25969,-4.22091c-0.19069,-0.45131 -0.14092,-7.55725 -0.14094,-7.88373c-0.00038,-6.39545 0.42914,-13.10659 -0.94096,-19.4037c-1.66491,-7.65209 -7.40968,-13.48205 -13.86471,-17.40813c-2.53988,-1.54481 -4.79669,-3.61092 -7.53153,-4.7763c-2.25959,-0.96287 -4.88123,-0.5534 -7.31815,-0.86048c-7.95124,0.00793 -15.65083,0.2275 -23.48454,0.97876c-2.44219,0.23421 -4.69568,1.42385 -7.04727,2.12328c-6.03754,1.79573 -12.10601,3.43522 -17.88864,5.98246c-7.43418,3.27474 -14.17799,7.55489 -21.17996,11.58871c-7.21493,4.15651 -14.72495,7.53243 -22.42749,10.64818c-0.28141,0.12503 -9.16172,4.0738 -9.30169,4.12198c-10.26323,3.53262 -21.37906,4.60495 -31.82801,7.4652c-9.11488,2.49507 -17.9157,7.68892 -27.32404,9.06977c-4.24048,0.62237 -9.05737,1.69317 -13.36303,1.69317c0,0 -0.76771,0 -1.45227,-0.42542c-0.77057,0.2237 -1.58565,0.35762 -2.40254,0.35819c-1.59163,0.00111 -3.19489,0.19379 -4.7749,0.00178c-0.47529,-0.05776 -0.76062,-0.0061 -1.2357,-0.06556c-0.31017,-0.03882 0.44357,-0.2261 0.66536,-0.00582c0,0 -2.80308,0.87049 -8.14123,-0.25226c-3.62414,-0.76225 -8.56,-5.55297 -6.95601,-5.67635c3.2476,-0.2498 22.18106,-0.6702 25.43826,-0.67348c0.46447,-0.00047 0.84172,0.04331 1.1399,0.12303c3.4414,0.13413 7.08436,0.45592 10.3561,-0.02427c9.15679,-1.34393 17.79549,-6.49202 26.67596,-8.93023c10.3585,-2.84401 21.40083,-3.8836 31.57484,-7.38551c3.09698,-1.06599 5.98282,-2.66767 8.97619,-3.99709c7.51865,-3.04261 14.84821,-6.3236 21.89178,-10.38204c7.15347,-4.12176 14.05835,-8.48233 21.65286,-11.8277c5.97647,-2.63262 12.23879,-4.34323 18.4788,-6.19923c2.58169,-0.76789 5.0744,-1.99108 7.75248,-2.27863c8.15199,-0.87528 16.2397,-1.029 24.51546,-1.02124c2.89657,0.35932 5.98013,0.03501 8.68185,1.13952c0.45926,0.18775 7.56129,4.66585 8.46847,5.2237c9.63981,5.92778 15.7836,14.40252 16.89013,25.84422c0.48732,5.03892 0.30386,10.17705 0.30419,15.23123c0.00009,1.35217 0.03059,2.70468 0.00001,4.0565c-0.01641,0.7255 -0.46241,1.52189 -0.14093,2.17248c0.6894,1.39517 2.20786,2.24081 2.98726,3.58778c0.51465,0.88942 0.24461,2.11632 0.80985,2.97448c0.80141,1.2167 2.10699,2.01286 3.14712,3.03303c1.98544,1.94734 3.8847,4.84587 6.86918,4.87316c0.90653,-0.74929 2.06586,-1.27019 2.71958,-2.24788c1.51789,-2.27013 1.51967,-5.31534 2.94414,-7.64523c0.91862,-1.50251 2.23222,-2.7263 3.2797,-4.142c1.78996,-2.4192 2.9201,-5.3965 5.15522,-7.41163c0.82771,-0.74624 6.99461,-4.31785 8.28308,-5.23371c5.94856,-4.22832 11.47665,-11.09431 15.31918,-17.27481c2.91364,-4.68643 4.21175,-10.43598 4.63451,-15.88404c0.20119,-2.59275 -0.09164,-5.20244 -0.00788,-7.80163c0.04499,-1.39598 -0.49323,-3.02718 0.29581,-4.17964c1.09877,-1.60486 3.2124,-2.19363 4.8186,-3.29044c5.42138,1.33634 10.43477,3.01896 15.49909,5.40158c2.98137,1.40265 5.68594,3.37451 8.72904,4.63763c3.04405,1.26351 6.35236,1.78301 9.45027,2.90803c4.39978,1.59781 8.20138,3.56429 12.22039,5.91643c1.08257,0.63358 2.46502,0.89754 3.27284,1.85712c3.5896,4.26394 2.71395,8.71148 2.71395,13.74929c0,9.9161 0.72935,20.16887 -0.1903,30.04329c2.4892,2.4892 6.05727,-0.77945 8.2813,-1.61893c4.68711,-1.76918 9.56165,-2.49236 14.24419,-4.39828c2.67408,-1.08842 5.47172,-1.90942 8.02746,-3.25238c4.24346,-2.22981 8.00923,-5.34824 12.27191,-7.56446c3.73649,-1.94266 7.99615,-2.81327 11.04931,-5.92727c0.82264,-0.83904 1.14468,-2.07963 1.94503,-2.93996c0.02093,-0.0225 6.79761,-5.88601 7.30679,-6.2921c4.26346,-3.40033 9.73364,-6.96652 12.61134,-11.61062c1.75424,-1.75766 3.73551,-4.08667 6.22852,-4.83201c0.46003,-0.13754 7.88711,-0.10727 8.72446,-0.10727c0.6443,0 10.18881,-0.01708 10.52925,0.05666c7.89154,1.70938 14.15361,7.59764 20.08667,12.53577c1.66147,1.38286 6.0239,4.59463 7.38504,6.40885c0.9311,1.24103 1.26042,2.84979 2.10488,4.15133c0.88878,1.36985 2.11749,2.49138 3.06698,3.81987c2.49172,3.48633 4.53862,7.69901 7.59495,10.75974c1.27013,1.27196 3.10823,1.92622 4.26034,3.30599c0.66154,0.79226 0.38853,2.0839 0.95866,2.94429c0.38113,0.57516 1.15846,0.74984 1.73769,1.12475c4.95872,-0.12441 9.9153,-0.13658 14.87508,-0.07499l2.60989,-0.90399c0,0 1.98012,-0.66004 2.92489,1.03535c7.92155,-5.59024 18.37447,-1.98218 27.6257,-3.15148c4.36144,-0.55126 8.66325,-1.81188 13.0899,-2.00727c1.52601,-0.06736 3.09123,0.39464 4.58207,0.06198c1.35692,-0.30278 2.40573,-1.42215 3.70702,-1.91159c2.85731,-1.0747 5.96409,-1.36758 8.84193,-2.38601c3.08546,-1.09191 6.03498,-2.53587 9.06793,-3.76613c1.5828,-0.73598 3.08952,-1.66476 4.7484,-2.20794c2.66388,-0.87226 5.66986,-0.52077 8.25442,-1.60574c1.1812,-0.49585 1.98743,-1.77146 3.23022,-2.08219c1.77177,-0.44299 3.66139,0.09178 5.47812,-0.0951c3.31729,-0.34124 6.52082,-1.48425 9.8401,-1.80568c4.68107,-0.4533 9.49488,0.33083 14.15191,-0.19352c1.6569,-0.18655 3.24755,-0.79926 4.90501,-0.98079c6.28681,-0.68858 13.02467,-0.03218 19.34934,-0.03218c4.81055,0 10.58053,-0.70496 15.34675,0.02416c3.31768,0.50753 6.53815,1.58867 9.87054,1.98833c3.85999,0.93408 8.14066,2.57757 12.08816,3.00624c6.63311,0.7203 13.63775,0.19885 20.18248,1.87298c1.57649,0.40326 3.00069,1.32029 4.59383,1.65177c1.62453,0.33801 3.3393,0.01257 4.96651,0.33743c5.70024,1.13801 11.30563,3.68487 17.2011,4.13156c1.77002,0.13411 3.59262,-0.33265 5.325,0.05441c3.02869,0.67668 5.63281,2.79897 8.68717,3.34828c4.29181,0.77186 8.77109,0.80255 12.80688,2.82465c0.25287,0.1267 5.91308,3.9099 6.31832,4.18006c6.07831,4.05221 12.21698,7.55606 18.73974,10.8483l0.87351,-0.26818c0,0 2.24237,0 2.47973,2.12369c1.62027,0.50403 1.62027,2.37631 1.62027,2.37631c-0.0142,3.21325 -0.20022,3.58088 0.87811,7.19448c0.75003,2.51344 2.48601,4.69027 3.05935,7.24981c0.22991,1.02637 -0.13799,2.117 0.03026,3.15526c0.14728,0.90881 0.76194,1.70024 0.90399,2.60989c0.08101,0.51873 -0.47812,1.07987 -0.25367,1.5545c0.15049,0.31824 0.3394,-0.62255 0.56764,-0.89056c0.54051,-0.6347 1.07911,-1.28502 1.72936,-1.80673c1.00148,-0.80351 2.12989,-1.43455 3.19822,-2.14677c3.36947,-2.24631 9.27977,-6.69994 8.88675,-10.91987l3.5,-2.5c0,0 2.5,0 2.5,2.5z"/></g></g></svg>