<svg version="1.1" xmlns="http://www.w3.org/2000/svg" xmlns:xlink="http://www.w3.org/1999/xlink" width="714.20712" height="71.52275" viewBox="0,0,714.20712,71.52275"><g transform="translate(31.50636,-281.83013)"><g data-paper-data="{&quot;isPaintingLayer&quot;:true}" fill="#000000" fill-rule="nonzero" stroke="none" stroke-width="0.5" stroke-linecap="butt" stroke-linejoin="miter" stroke-miterlimit="10" stroke-dasharray="" stroke-dashoffset="0" style="mix-blend-mode: normal"><path d="M678.32665,318.2965c0.22179,-0.22028 0.97553,-0.69967 0.66536,-0.66085c-0.47508,0.05946 -0.76041,0.67447 -1.2357,0.73223c-1.58001,0.19201 -4.18327,-1.334 -5.7749,-1.33511c-5.00359,-0.00349 -10.00802,0.01254 -15.01153,-0.01512c-10.15818,-0.05616 -20.10927,-1.42817 -30.06811,-3.00483c-3.47932,-0.55084 -7.8314,0.00825 -11.30973,-0.0018c-1.81681,-0.0189 -3.66325,0.27063 -5.45042,-0.05669c-3.26124,-0.59729 -6.31628,-2.08925 -9.57894,-2.67876c-0.91351,-0.16506 -10.05574,-1.79599 -10.55175,-2.03408c-1.21294,-0.58223 -1.56259,-2.37822 -2.79944,-2.90775c-2.01281,-0.86175 -4.37629,0.1903 -6.56581,0.1903c-4.46577,0 -10.04003,-0.85518 -14.42562,-0.06688c-2.15376,0.38714 -3.74792,2.38348 -5.858,2.96324c-4.72064,1.29703 -9.96506,0.87813 -14.76108,1.84825c-3.26415,0.66026 -6.34929,2.05612 -9.61097,2.72847c-4.8975,1.00956 -10.09396,1.32679 -15.05392,1.97542c-19.46418,2.54541 -38.70689,8.47388 -56.7917,16.01669c-11.81434,4.92752 -24.07663,8.33957 -35.5512,14.07685c-3.81425,1.90533 -8.46235,5.59447 -12.43034,6.91379c-3.77904,1.25649 -9.147,-1.03233 -12.88555,-1.41931c-4.50855,-0.46668 -8.08974,-1.82112 -12.4868,-3.08902c-4.74918,-1.36944 -9.15402,-2.11431 -13.7261,-4.14401c-1.78589,-0.79282 -3.82159,-1.20166 -5.32601,-2.44853c-1.93619,-1.60473 -1.95875,-4.78805 -3.76526,-6.53749c-2.19067,-2.12146 -4.90093,-3.68696 -7.63006,-5.04767c-2.81524,-1.40365 -6.07831,-1.70514 -8.95527,-2.97751c-0.85366,-0.37754 -6.4665,-3.94914 -7.1302,-4.3665c-7.38326,0.24384 -14.71507,-2.21097 -22.04582,-2.91957c-3.4112,-0.32973 -7.2508,0.00728 -10.64351,0.00729c-8.33331,0.00001 -16.66662,0.00024 -24.99993,0.00049c-12.99412,0.0004 -26.65603,-1.16987 -39.46561,1.17333c-6.54688,1.19034 -12.93109,2.46297 -19.6376,1.80558c-5.95214,-0.58345 -11.65051,-3.98767 -17.0991,-6.15993c-6.15442,-2.45366 -12.48012,-4.48069 -18.65599,-6.88042c-3.03779,-1.18038 -5.91467,-2.80604 -9.04565,-3.71068c-6.20184,-1.7919 -13.0856,-2.22424 -19.43619,-3.41551c-1.88471,-0.35354 -3.91248,-0.28939 -5.64398,-1.11344c-1.23843,-0.58939 -1.64568,-2.33722 -2.87679,-2.94173c-0.95472,-0.46879 -2.12707,-0.02502 -3.1906,-0.03752c-6.67242,-0.41703 -13.44245,-0.54684 -20.08905,-1.25887c-6.19662,-0.66383 -12.27621,-2.43998 -18.47414,-3.08198c-1.70827,-0.17695 -3.45338,0.05687 -5.14725,-0.2265c-4.92685,-0.82422 -9.57036,-3.29203 -14.46663,-4.26893c-1.61712,-0.32264 -3.29527,-0.23987 -4.91845,-0.53047c-3.23696,-0.57952 -6.30999,-1.95601 -9.56759,-2.40519c-2.87146,-0.39594 -5.79724,0.01059 -8.69585,0.01872c-6.27727,0.0176 -12.55269,0.02744 -18.82561,0.26344c-6.17383,1.5365 -11.92264,1.18388 -18.27022,1.26343c-6.65565,0.08342 -13.20307,1.05914 -19.83622,1.47261c-1.26571,0.0789 -7.24266,0.03207 -7.81193,0.1068c-4.3341,0.56893 -9.90353,2.00525 -14.00771,3.51116c-6.83495,2.50787 -13.02685,8.32394 -18.92145,12.45017c0,0 -2.04808,1.43366 -3.48174,-0.61442c-1.43366,-2.04808 0.61442,-3.48174 0.61442,-3.48174c4.98372,-3.4886 9.88953,-7.59035 15.16937,-10.61031c5.67613,-3.24663 13.47692,-5.35916 19.97636,-6.21232c1.89705,-0.24902 5.92466,0.00038 8.19726,-0.14228c6.70119,-0.42067 13.31288,-1.39186 20.0378,-1.47925c6.14961,-0.07992 11.65569,0.28569 17.62325,-1.21306c6.50571,-0.27802 13.00958,-0.29594 19.52101,-0.3142c3.10738,-0.00871 6.24311,-0.40001 9.32217,0.01872c1.35664,0.18449 8.3135,2.17474 9.83526,2.44552c3.3595,0.59779 6.76199,1.05758 10.03513,2.02205c3.09923,0.91323 6.10139,2.24303 9.2896,2.76695c1.59455,0.26204 3.23692,0.01917 4.84425,0.18571c6.21644,0.64408 12.31296,2.42475 18.5268,3.08772c6.5618,0.70009 13.24595,0.82456 19.83306,1.23626c1.64511,0.15678 3.42177,-0.19304 4.93534,0.47035c1.33711,0.58604 1.82502,2.40824 3.12921,3.06428c1.26556,0.63661 2.80578,0.39568 4.20386,0.62441c6.50194,1.06374 13.63037,1.70849 19.95515,3.53591c0.24598,0.07107 9.05876,3.69438 9.46869,3.85366c6.18914,2.40489 12.52786,4.43708 18.69559,6.896c5.02042,2.00152 10.44068,5.35766 15.93393,5.85208c6.16808,0.55516 12.03677,-0.67739 18.05782,-1.77213c13.13078,-2.37379 27.04458,-1.25357 40.35989,-1.25398c11.83594,-0.00036 24.24388,-1.11026 36.02484,0.00678c7.71145,0.73118 15.23699,2.90032 22.99923,3.08644c2.64014,1.52716 5.093,3.41435 7.88482,4.64251c1.11932,0.49241 7.99983,2.49988 9.06275,3.0285c0.34538,0.17177 8.81689,5.85374 9.01095,6.04634c1.12189,1.11343 1.79983,2.60404 2.57834,3.97965c0.43133,0.76216 0.35419,1.86755 1.03942,2.41289c1.08054,0.85995 2.58758,0.96708 3.86545,1.49066c4.40398,1.80445 8.57516,2.61991 13.11848,3.92881c2.95019,0.84993 5.71494,2.35371 8.72847,2.94075c2.61357,0.50913 5.31904,0.38598 7.94551,0.82373c1.98814,0.33136 4.11992,1.45826 6.00171,0.7362c3.79897,-1.45768 7.8477,-4.72507 11.52894,-6.56735c11.57134,-5.78567 23.92054,-9.23162 35.82914,-14.20534c18.49424,-7.72427 38.19428,-13.77051 58.10147,-16.37385c4.83869,-0.63277 9.91469,-0.92973 14.6928,-1.91467c3.26771,-0.6736 6.35894,-2.0707 9.62913,-2.73218c4.63333,-0.93721 9.75043,-0.51157 14.3076,-1.73421c2.21022,-0.59298 3.90733,-2.60791 6.15401,-3.04277c5.65624,-1.0948 12.80814,-0.19669 18.5924,-0.06688c1.82105,0.04087 3.75816,-0.45584 5.46121,0.1903c1.38963,0.52722 1.88014,2.4277 3.20656,3.09825c2.75327,1.39187 6.0909,0.98856 9.12565,1.54363c5.07905,0.92897 8.98818,2.68634 14.14938,2.65481c3.71275,0.01073 8.20133,-0.51977 11.9062,0.03924c8.16355,1.23177 16.27302,2.5224 24.59062,2.92226c4.93842,0.23741 9.93913,0.05024 14.88234,0.05521c3.2572,0.00328 7.52399,1.09034 10.77159,1.34014c1.60399,0.12338 3.69783,-0.46685 4.7703,0.73223c1.19696,1.33828 -4.20087,4.19638 -4.20087,4.19638z"/></g></g></svg>