<svg version="1.1" xmlns="http://www.w3.org/2000/svg" xmlns:xlink="http://www.w3.org/1999/xlink" width="695.51661" height="20.48255" viewBox="0,0,695.51661,20.48255"><g transform="translate(-70.18342,-303.2784)"><g data-paper-data="{&quot;isPaintingLayer&quot;:true}" fill="#000000" fill-rule="nonzero" stroke="none" stroke-width="0.5" stroke-linecap="butt" stroke-linejoin="miter" stroke-miterlimit="10" stroke-dasharray="" stroke-dashoffset="0" style="mix-blend-mode: normal"><path d="M765.7,308.53334c0,2.5 -2.52297,2.5 -2.52297,2.5h-0.6728c-5.83238,-0.00473 -11.64415,-0.33334 -17.49262,-0.33334c-17.80188,0 -35.72959,-0.5658 -53.39926,-2.3455c-4.23106,-0.42615 -8.35919,0.6735 -12.55969,0.67871c-3.21242,0.00399 -6.49055,-0.33321 -9.73027,-0.33321c-19.0051,0 -37.84232,1 -56.85101,1c0,0 -0.56745,0 -1.16412,-0.26666c-5.72979,0 -13.04152,0 -18.08612,0c-25.95973,0 -51.79101,0.31044 -77.68484,1.05675c-7.09568,0.20451 -13.80551,1.92758 -20.89271,1.94325c-8.44076,0 -16.63475,0.59724 -25.03814,0.99689c-11.42721,0.54348 -23.19721,-1.08805 -34.57753,0.01002c-4.58289,0.4422 -8.98828,1.71268 -13.63024,1.98826c-3.47817,0.20648 -6.97564,-0.19455 -10.4547,-0.00211c-6.15218,0.34031 -12.36889,1.97754 -18.43976,2.93322c-4.29482,1.33193 -7.40109,0.59516 -11.84731,1.05499c-2.49701,0.25824 -4.75018,1.68053 -7.24126,1.98645c-1.76645,0.21693 -3.57221,-0.16744 -5.34311,0.01355c-2.49734,0.25522 -4.75485,1.64779 -7.24126,1.98645c-5.80358,0.79048 -12.40794,0.03228 -18.24781,0.03228c-12.58437,0 -25.16874,0 -37.75311,0c-3.70935,0 -7.65345,0.2873 -11.30237,-0.47374c-1.66599,-0.34747 -3.17951,-1.22232 -4.84805,-1.55854c-3.91284,-0.78847 -9.22375,0.03228 -13.21311,0.03228c-10.13741,0 -20.27482,0 -30.41222,0c-4.5656,0 -9.46609,0.40668 -13.9982,-0.03206c-5.15802,-0.49933 -9.08228,-1.98786 -14.31663,-1.96794c-3.97675,-0.02149 -7.1287,-1.51751 -10.90693,-2.03228c-3.72063,-0.50693 -7.6956,0.45104 -11.43605,0.01355c-3.58183,-0.41894 -7.07183,-1.5221 -10.58659,-2.01355c-3.29466,-0.46067 -4.05417,0.50942 -7.28919,0.0075c-3.13096,-0.48578 -6.12708,-1.71052 -9.28625,-1.98373c-7.67376,-0.66364 -15.54771,0.70617 -23.22023,-0.02355c-5.04461,-0.47978 -9.28719,-0.96907 -14.42329,-0.97368c-1.83352,-0.00873 -3.67654,0.15171 -5.50056,-0.02618c-2.88576,-0.28145 -5.56722,-1.65857 -8.4458,-2.00036c-3.48361,-0.41363 -7.56826,0.03228 -11.11571,0.03228c-4.62799,0 -9.76823,-0.57729 -14.36142,-0.01873c-1.42972,0.17386 -2.76421,0.83267 -4.19479,1c-2.74277,0.3208 -5.55587,-0.39585 -8.28996,-0.01355c-1.09373,0.15293 -2.05477,0.83216 -3.1461,1c-5.74241,0.88315 -5.57353,-4.15536 -0.83992,-4.93544c1.08928,-0.17951 2.05127,-0.85438 3.1461,-1c2.8026,-0.37278 5.6822,0.3278 8.48921,-0.01355c2.90156,-0.35285 5.78485,-1.01312 8.70991,-1.01873c7.21282,-0.01385 15.26702,-0.82582 22.4426,0.03228c4.5972,0.54976 8.28007,1.96084 13.11608,1.96199c5.26353,0.00473 9.76797,0.49485 14.94028,0.99895c7.63281,0.7439 15.48536,-0.66381 23.1261,0.0153c3.25942,0.28969 6.36376,1.48923 9.5903,2.01627c2.42882,0.39673 4.952,-0.31714 7.39257,0.00749c3.45176,0.45912 6.87157,1.55891 10.38735,1.98645c3.81203,0.46357 7.82126,-0.50594 11.6353,0.01355c3.56325,0.48533 6.34174,1.99241 10.06702,1.96772c5.40532,0.0182 9.56719,1.48861 14.84325,1.99322c5.74492,0.54946 11.88601,0.00678 17.66638,0.00678c12.23433,0 24.47027,-0.05884 36.70441,0c2.94497,0.01416 5.79423,1.01711 8.66682,1.63602c3.24364,0.69885 6.90741,0.36398 10.20973,0.36398c12.58437,0 25.16874,0 37.75311,0c5.55475,0 11.88968,0.78412 17.4079,0.03228c2.55219,-0.34773 4.87922,-1.73318 7.4405,-2.01355c1.70344,-0.18646 3.44162,0.20967 5.14386,0.01355c2.5595,-0.29489 4.87881,-1.73658 7.4405,-2.01355c4.45331,-0.48149 7.08618,0.40683 11.22403,-0.94501c6.35708,-1.01929 12.86645,-2.70132 19.31335,-3.06678c3.50024,-0.19842 7.0196,0.20565 10.51924,-0.00211c4.56942,-0.27127 8.91537,-1.54359 13.43224,-1.97291c11.4803,-1.09118 23.31782,0.51918 34.84015,-0.02882c8.48709,-0.40364 16.77473,-1.00311 25.29933,-1.00311c7.01141,0.01711 13.69443,-1.73185 20.73182,-1.9409c25.94517,-0.77069 51.83366,-1.0591 77.84573,-1.0591c5.94262,0 11.88524,0 17.82786,0h3.14609c0.40563,0 0.7499,0.09541 1.035,0.25986c18.07333,-0.08765 36.0066,-0.9932 54.09231,-0.9932c3.25954,0 6.54949,0.32896 9.78072,0.33346c4.3607,0.00608 8.60106,-1.08468 13.00645,-0.65463c17.51944,1.71026 35.25525,2.32117 52.90204,2.32117c5.84642,0 11.66328,0.3384 17.49262,0.33334h0.6728c0,0 2.52297,0 2.52297,2.5z"/></g></g></svg>